<?xml version="1.0" encoding="UTF-8" standalone="no"?>
<svg
   id="Layer_1"
   data-name="Layer 1"
   viewBox="0 0 16 16"
   version="1.1"
   sodipodi:docname="plus2.svg"
   inkscape:version="1.2.1 (9c6d41e410, 2022-07-14)"
   xmlns:inkscape="http://www.inkscape.org/namespaces/inkscape"
   xmlns:sodipodi="http://sodipodi.sourceforge.net/DTD/sodipodi-0.dtd"
   xmlns="http://www.w3.org/2000/svg"
   xmlns:svg="http://www.w3.org/2000/svg">
  <defs
     id="defs11" />
  <sodipodi:namedview
     id="namedview9"
     pagecolor="#ffffff"
     bordercolor="#000000"
     borderopacity="0.25"
     inkscape:showpageshadow="2"
     inkscape:pageopacity="0.0"
     inkscape:pagecheckerboard="0"
     inkscape:deskcolor="#d1d1d1"
     showgrid="false"
     inkscape:zoom="34.9375"
     inkscape:cx="7.9856887"
     inkscape:cy="8"
     inkscape:window-width="1358"
     inkscape:window-height="760"
     inkscape:window-x="4"
     inkscape:window-y="4"
     inkscape:window-maximized="1"
     inkscape:current-layer="Layer_1" />
  <title
     id="title2">Trade_Icons</title>
  <path
     d="M8,0a8,8,0,1,0,8,8A8,8,0,0,0,8,0ZM8,15a7,7,0,1,1,7-7A7,7,0,0,1,8,15Z"
     id="path4" />
  <polygon
     points="9 4 7 4 7 7 4 7 4 9 7 9 7 12 9 12 9 9 12 9 12 7 9 7 9 4"
     id="polygon6" />
  <path
     style="fill:#000000;stroke-width:0.0286225"
     d="M 7.0125224,10.47585 V 8.9731664 H 5.509839 4.0071556 V 8 7.0268336 H 5.509839 7.0125224 V 5.5241503 4.0214669 H 8 8.9874776 v 1.5026834 1.5026833 h 1.5026834 1.502683 V 8 8.9731664 H 10.490161 8.9874776 V 10.47585 11.978533 H 8 7.0125224 Z"
     id="path201" />
  <path
     style="fill:#ff0000;stroke-width:0.0286225"
     d="M 6.9838998,10.504728 V 9.0022995 L 5.4883721,8.9948886 3.9928444,8.9874776 V 8 7.0125224 l 1.4955277,-0.00741 1.4955277,-0.00741 v -1.50243 -1.502428 H 8 9.0161002 v 1.502428 1.5024281 l 1.4955278,0.00741 1.495528,0.00741 V 8 8.9874776 l -1.495528,0.00741 -1.4955278,0.00741 v 1.5024284 1.502428 H 8 6.9838998 Z"
     id="path408" />
  <path
     style="fill:#000000;stroke-width:0.0286225"
     d="M 7.1985689,14.952259 C 5.1660145,14.704738 3.3785308,13.625415 2.2263354,11.949911 1.6248357,11.075219 1.2393017,10.084357 1.0681151,8.9731664 0.99703022,8.511747 0.99732942,7.4848698 1.0686822,7.0268336 1.3137277,5.4538087 1.9741415,4.1355088 3.0620332,3.047762 4.0809122,2.0290185 5.3455906,1.3752993 6.8338805,1.0980731 7.2294804,1.0243841 8.3222557,0.99303617 8.7613261,1.0427814 c 1.0749733,0.121791 2.2336189,0.5415273 3.1027169,1.1240048 1.327117,0.8894462 2.31482,2.1897405 2.78941,3.672212 0.24528,0.766179 0.328551,1.3138814 0.328551,2.1610018 0,0.6949046 -0.03592,1.0268265 -0.175007,1.6171735 -0.551531,2.3409375 -2.323283,4.2732985 -4.603061,5.0203285 -0.8006905,0.262367 -1.3584116,0.348216 -2.226869,0.342777 -0.3179772,-0.002 -0.6683013,-0.0146 -0.7784981,-0.02802 z M 9.0161002,10.504728 V 9.0022995 l 1.4955278,-0.00741 1.495528,-0.00741 V 8 7.0125224 l -1.495528,-0.00741 -1.4955278,-0.00741 v -1.50243 -1.502428 H 8 6.9838998 v 1.502428 1.5024281 l -1.4955277,0.00741 -1.4955277,0.00741 V 8 8.9874776 l 1.4955277,0.00741 1.4955277,0.00741 v 1.5024284 1.502428 H 8 9.0161002 Z"
     id="path414" />
  <path
     style="fill:#000000;stroke-width:0.0286225"
     d="M 7.313059,14.982091 C 5.1871047,14.762372 3.3308177,13.639598 2.1343172,11.849732 1.8742902,11.460753 1.5186421,10.729625 1.3615856,10.261181 1.0992633,9.4787647 0.99660252,8.8420182 0.99702188,8 0.99759475,6.849752 1.2274816,5.8667332 1.72952,4.8677667 2.1003658,4.1298499 2.483131,3.5972505 3.0484894,3.0324843 4.1208532,1.9612434 5.4589132,1.2933237 7.0125224,1.0537566 c 0.4603563,-0.0709872 1.5145989,-0.0709872 1.9749552,0 2.0467964,0.3156167 3.7445854,1.3931435 4.8789734,3.0965117 0.412197,0.6189459 0.803216,1.5401483 0.972708,2.2916099 0.218032,0.9666671 0.222463,2.0957418 0.01206,3.0739856 -0.158217,0.7356272 -0.569238,1.7090162 -0.985492,2.3338682 -1.128401,1.693875 -2.836686,2.782891 -4.8496308,3.091595 -0.3588952,0.05504 -1.3381244,0.07848 -1.7030412,0.04076 z m 1.9211592,-0.108532 c 0.8484028,-0.16195 1.7367798,-0.506809 2.4461828,-0.949582 0.826183,-0.515663 1.633224,-1.310086 2.179885,-2.145802 0.229792,-0.351298 0.545403,-0.98137 0.695364,-1.388193 0.126732,-0.343806 0.280689,-0.9291651 0.342529,-1.3023255 0.06335,-0.3822477 0.08603,-1.2467223 0.04544,-1.7316637 C 14.789034,5.5091377 13.841502,3.7527463 12.35384,2.5554538 11.933715,2.2173312 11.607713,2.0105883 11.099862,1.7602115 10.415344,1.4227353 9.5772874,1.1650523 8.8586762,1.0710988 8.5071442,1.0251384 7.1672913,1.0523326 6.8550984,1.1117642 5.3638852,1.3956441 4.1143473,2.0378636 3.1075255,3.0378882 2.0538949,4.0844053 1.4199767,5.2857062 1.1246508,6.7955166 c -0.070968,0.3628136 -0.076122,0.442193 -0.077279,1.1901721 -0.00137,0.8824086 0.015433,1.0302749 0.1988196,1.7500763 0.6086124,2.388838 2.471877,4.298206 4.853429,4.973518 0.3031848,0.08597 0.7536487,0.181921 1.0703264,0.227984 0.047227,0.0069 0.4593918,0.009 0.9159213,0.0048 0.7050176,-0.0066 0.8780007,-0.01687 1.1483506,-0.06848 z"
     id="path416" />
  <path
     style="fill:#000000;stroke-width:0.0286225"
     d="M 7.2028219,15.954356 C 5.6679531,15.792364 4.1710935,15.178576 2.9767442,14.221452 2.6475826,13.957669 2.034401,13.341386 1.7703401,13.008945 -0.19184915,10.538636 -0.54469619,7.2232587 0.8564731,4.4221825 2.2147817,1.706789 4.9578914,0.01414111 7.9998245,0.01434598 9.5879851,0.01445294 11.106132,0.46813441 12.397244,1.328466 12.919478,1.6764567 13.200797,1.9065051 13.641076,2.3456109 14.932085,3.633177 15.713967,5.2449643 15.94666,7.09839 15.999,7.5153131 15.99113,8.5345941 15.93207,8.9874776 15.702191,10.750156 14.910886,12.377004 13.682221,13.612958 12.341376,14.961756 10.648299,15.769732 8.7749951,15.9548 8.4190669,15.98996 7.5378399,15.98971 7.2028239,15.954356 Z M 9.0161002,10.508715 V 9.0102735 l 0.2361359,-0.018382 c 0.1298748,-0.01011 0.7996419,-0.018459 1.4883719,-0.018554 l 1.252236,-1.714e-4 V 8 7.0268336 L 10.740608,7.0266619 C 10.051878,7.026576 9.3821109,7.0182182 9.2522361,7.0081082 L 9.0161002,6.9897265 V 5.4912853 3.9928444 H 8 6.9838998 v 1.4984409 1.4984412 l -0.2361359,0.018382 c -0.1298748,0.01011 -0.7996423,0.018459 -1.4883721,0.018554 L 4.0071556,7.0268336 V 8 8.9731664 l 1.2522362,1.717e-4 c 0.6887298,8.59e-5 1.3584973,0.00844 1.4883721,0.018554 l 0.2361359,0.018382 v 1.4984409 1.498441 H 8 9.0161002 Z"
     id="path436" />
  <path
     style="fill:#ffffff;stroke-width:0.0286225"
     d="M 6.9838998,10.509075 V 9.0109948 L 6.1896243,8.992136 C 5.7527728,8.9817637 5.0830054,8.9732525 4.7012522,8.9732219 L 4.0071556,8.9731664 V 8 7.0268336 l 0.6940966,-5.72e-5 c 0.3817532,-2.86e-5 1.0515206,-0.00854 1.4883721,-0.018914 L 6.9838998,6.9890052 V 5.4909249 3.9928444 H 8 9.0161002 v 1.4980805 1.4980803 l 0.7942755,0.018859 c 0.4368513,0.010372 1.1066193,0.018884 1.4883723,0.018914 l 0.694096,5.55e-5 V 8 8.9731664 l -0.694096,5.72e-5 c -0.381753,2.86e-5 -1.051521,0.00854 -1.4883723,0.018914 l -0.7942755,0.018859 v 1.4980804 1.49808 H 8 6.9838998 v -1.49808 z"
     id="path438" />
</svg>
